{"title":"Resident Evil Afterlife 2010 R5 LINE XViD-FOX","uid":5869185,"size":1257764740,"categoryP":"video","categoryS":"movies","magnet":"?xt=urn:btih:4bdeaf10101e04af4c9727bbb3121f9a624a0654&amp;dn=Resident+Evil+Afterlife+2010+R5+LINE+XViD-FOX&amp;tr=udp%3A%2F%2Ftracker.openbittorrent.com%3A80&amp;tr=udp%3A%2F%2Fopen.demonii.com%3A1337&amp;tr=udp%3A%2F%2Ftracker.coppersurfer.tk%3A6969&amp;tr=udp%3A%2F%2Fexodus.desync.com%3A6969","seeders":0,"leechers":0,"uploader":"IwannaFan2","files":2,"time":1286393431,"description":"Filename:\nResident Evil Afterlife 2010 R5 LINE XViD-FOX\n &lt;a href=&quot;\nhttp://www.imdb.com/title/tt1220634/&quot; rel=&quot;nofollow&quot; target=&quot;_NEW&quot;&gt;\nhttp://www.imdb.com/title/tt1220634/&lt;/a&gt;\n\nVideo\nID                               : 0\nFormat                           : MPEG-4 Visual\nFormat profile                   : AdvancedSimple@L5\nFormat settings, BVOP            : Yes\nFormat settings, QPel            : No\nFormat settings, GMC             : No warppoints\nFormat settings, Matrix          : Default (H.263)\nMuxing mode                      : Packed bitstream\nCodec ID                         : XVID\nCodec ID/Hint                    : XviD\nDuration                         : 1h 32mn\nBit rate                         : 1 652 Kbps\nWidth                            : 720 pixels\nHeight                           : 304 pixels\nDisplay aspect ratio             : 2.35:1\nFrame rate                       : 25.000 fps\nResolution                       : 24 bits\nColorimetry                      : 4:2:0\nScan type                        : Progressive\nBits/(Pixel*Frame)               : 0.302\nStream size                      : 1.07 GiB (92%)\nWriting library                  : XviD 1.2.1 (UTC 2008-12-04)\n\nAudio\nID                               : 1\nFormat                           : MPEG Audio\nFormat version                   : Version 1\nFormat profile                   : Layer 3\nFormat_Settings_Mode             : Joint stereo / MS Stereo\nCodec ID                         : 55\nCodec ID/Hint                    : MP3\nDuration                         : 1h 32mn\nBit rate mode                    : Variable\nBit rate                         : 128 Kbps\nChannel(s)                       : 2 channels\nSampling rate                    : 48.0 KHz\nResolution                       : 16 bits\nStream size                      : 84.8 MiB (7%)\nAlignment                        : Aligned on interleaves\nInterleave, duration             : 24 ms (0.60 video frame)\nInterleave, preload duration     : 484 ms\nWriting library                  : LAME3.90.\nEncoding settings                : -m j -V 4 -q 2 -lowpass 17.6 --abr 128","torrent":{"xt":"urn:btih:4bdeaf10101e04af4c9727bbb3121f9a624a0654","amp;dn":"Resident+Evil+Afterlife+2010+R5+LINE+XViD-FOX","amp;tr":["udp%3A%2F%2Ftracker.openbittorrent.com%3A80","udp%3A%2F%2Fopen.demonii.com%3A1337","udp%3A%2F%2Ftracker.coppersurfer.tk%3A6969","udp%3A%2F%2Fexodus.desync.com%3A6969"],"infoHash":"4bdeaf10101e04af4c9727bbb3121f9a624a0654","infoHashBuffer":{"type":"Buffer","data":[75,222,175,16,16,30,4,175,76,151,39,187,179,18,31,154,98,74,6,84]},"announce":[],"urlList":[]}}